<?xml version="1.0" encoding="UTF-8"?>
<!DOCTYPE svg PUBLIC "-//W3C//DTD SVG 1.1//EN" "http://www.w3.org/Graphics/SVG/1.1/DTD/svg11.dtd">
<!-- Creator: CorelDRAW 2019 (64 Bit) -->
<svg xmlns="http://www.w3.org/2000/svg" xml:space="preserve" width="120px" height="13px" version="1.1" style="shape-rendering:geometricPrecision; text-rendering:geometricPrecision; image-rendering:optimizeQuality; fill-rule:evenodd; clip-rule:evenodd"
viewBox="0 0 32.01 3.48"
 xmlns:xlink="http://www.w3.org/1999/xlink">
 <defs>
  <style type="text/css">
   <![CDATA[
    .fil2 {fill:black}
    .fil1 {fill:black;fill-rule:nonzero}
    .fil0 {fill:#E31222;fill-rule:nonzero}
   ]]>
  </style>
 </defs>
 <g id="Camada_x0020_1">
  <metadata id="CorelCorpID_0Corel-Layer"/>
  <path class="fil0" d="M12.14 3.32c0.02,0.05 0.06,0.08 0.11,0.08 0.01,0 0.02,0 0.04,0 0.06,-0.02 0.09,-0.1 0.06,-0.15l-1.16 -3.12c-0.02,-0.04 -0.06,-0.07 -0.12,-0.07 -0.04,0 -0.09,0.03 -0.11,0.07l-1.17 3.12c-0.02,0.05 0.01,0.13 0.07,0.15 0.02,0 0.03,0 0.04,0 0.05,0 0.1,-0.03 0.11,-0.08l0.3 -0.79 1.53 0 0.3 0.79zm-1.06 -2.82l0.67 1.8 -1.35 0 0.68 -1.8z"/>
  <path id="1" class="fil0" d="M12.76 1.71l0 0c0,0.93 0.78,1.69 1.74,1.69l0 0c0.41,0 0.79,-0.14 1.08,-0.36l0 0c0.06,-0.04 0.07,-0.13 0.02,-0.17l0 0c-0.04,-0.06 -0.11,-0.07 -0.17,-0.03l0 0c-0.25,0.21 -0.57,0.33 -0.93,0.33l0 0c-0.84,0 -1.51,-0.66 -1.51,-1.46l0 0c0,-0.82 0.67,-1.48 1.51,-1.48l0 0c0.36,0 0.68,0.13 0.94,0.33l0 0c0.05,0.04 0.12,0.03 0.16,-0.02l0 0c0.05,-0.05 0.04,-0.13 -0.02,-0.17l0 0c-0.29,-0.23 -0.67,-0.37 -1.08,-0.37l0 0c-0.96,0 -1.74,0.76 -1.74,1.71z"/>
  <path id="2" class="fil0" d="M18.66 3.32c0.02,0.05 0.07,0.08 0.11,0.08 0.01,0 0.02,0 0.04,0 0.06,-0.02 0.09,-0.1 0.06,-0.15l-1.16 -3.12c-0.01,-0.04 -0.06,-0.07 -0.12,-0.07 -0.04,0 -0.09,0.03 -0.11,0.07l-1.16 3.12c-0.03,0.05 0.01,0.13 0.06,0.15 0.02,0 0.04,0 0.05,0 0.04,0 0.09,-0.03 0.11,-0.08l0.29 -0.79 1.53 0 0.3 0.79zm-1.06 -2.82l0.67 1.8 -1.35 0 0.68 -1.8z"/>
  <path id="3" class="fil0" d="M20.36 3.4c0.93,0 1.68,-0.75 1.68,-1.67 0,-0.93 -0.75,-1.68 -1.68,-1.68l-0.61 0 -0.01 0c-0.07,0 -0.12,0.05 -0.12,0.11l0 3.12c0,0.07 0.05,0.12 0.11,0.12l0.01 0 0.62 0zm-0.5 -0.23l0 -2.89 0.5 0c0.8,0.01 1.44,0.65 1.44,1.45 0,0.79 -0.64,1.44 -1.44,1.44l-0.5 0z"/>
  <path id="4" class="fil0" d="M22.82 3.28c0,0.07 0.05,0.12 0.11,0.12l0.01 0 0.01 0 1.71 0c0.07,0 0.12,-0.05 0.12,-0.12 0,-0.06 -0.05,-0.11 -0.12,-0.11l-1.6 0 0 -1.33 1.4 0c0.06,0 0.12,-0.05 0.12,-0.11 0,-0.07 -0.06,-0.12 -0.12,-0.12l-1.4 0 0 -1.33 1.6 0c0.07,0 0.12,-0.05 0.12,-0.12 0,-0.06 -0.05,-0.11 -0.12,-0.11l-1.71 0 -0.01 0c-0.06,0 -0.12,0.05 -0.12,0.11l0 3.12z"/>
  <path id="5" class="fil0" d="M28.25 3.28c0,0.07 0.05,0.12 0.11,0.12 0.07,0 0.12,-0.05 0.12,-0.12l0 -3.1c0,-0.02 -0.01,-0.04 -0.02,-0.06 -0.01,-0.01 -0.02,-0.02 -0.03,-0.04 -0.06,-0.03 -0.13,-0.02 -0.17,0.03l-1.18 1.65 -1.2 -1.65c-0.03,-0.05 -0.11,-0.06 -0.16,-0.03 0,0.01 -0.01,0.01 -0.01,0.01 -0.03,0.02 -0.05,0.05 -0.05,0.09l0 3.1c0,0.07 0.06,0.12 0.12,0.12 0.07,0 0.12,-0.05 0.12,-0.12l0 -2.75 1.07 1.49c0.02,0.03 0.06,0.05 0.1,0.05l0.01 0c0.03,0 0.07,-0.02 0.1,-0.05l1.07 -1.49 0 2.75z"/>
  <path id="6" class="fil0" d="M30.62 3.28c0,0.07 0.06,0.12 0.12,0.12 0.07,0 0.11,-0.05 0.11,-0.12l0 -1.5 1.12 -1.53c0.04,-0.05 0.03,-0.13 -0.02,-0.16 -0.05,-0.04 -0.13,-0.03 -0.16,0.02l-1.06 1.44 -1.04 -1.44c-0.04,-0.05 -0.11,-0.06 -0.17,-0.02 -0.04,0.03 -0.05,0.11 -0.02,0.16l1.12 1.54 0 1.49z"/>
  <path class="fil1" d="M2.12 1.63c0.25,-0.16 0.42,-0.42 0.42,-0.72 0,-0.5 -0.43,-0.86 -1.03,-0.86l-1.51 0 0 3.35 1.55 0c0.61,0 1.08,-0.41 1.08,-0.95 0,-0.37 -0.2,-0.67 -0.51,-0.82l0 0zm-0.45 -0.57c0,0.17 -0.12,0.29 -0.32,0.29l-0.46 0 0 -0.58 0.46 0c0.2,0 0.32,0.11 0.32,0.29l0 0zm-0.28 1.58l-0.5 0 0 -0.61 0.5 0c0.2,0 0.33,0.13 0.33,0.31 0,0.18 -0.13,0.3 -0.33,0.3l0 0z"/>
  <path id="1" class="fil1" d="M4.18 3.48c0.78,0 1.3,-0.5 1.3,-1.23l0 -2.2 -0.93 0 0 2.15c0,0.26 -0.15,0.42 -0.37,0.42 -0.23,0 -0.38,-0.16 -0.38,-0.42l0 -0.08 -0.93 0 0 0.13c0,0.73 0.54,1.23 1.31,1.23l0 0z"/>
  <path id="2" class="fil1" d="M7.16 3.48c0.78,0 1.3,-0.5 1.3,-1.23l0 -2.2 -0.93 0 0 2.15c0,0.26 -0.15,0.42 -0.37,0.42 -0.23,0 -0.38,-0.16 -0.38,-0.42l0 -0.08 -0.93 0 0 0.13c0,0.73 0.54,1.23 1.31,1.23l0 0z"/>
  <circle class="fil2" cx="9.06" cy="3.06" r="0.33"/>
 </g>
</svg>
