<?xml version="1.0" encoding="UTF-8"?>
<!DOCTYPE svg PUBLIC "-//W3C//DTD SVG 1.1//EN" "http://www.w3.org/Graphics/SVG/1.1/DTD/svg11.dtd">
<!-- Creator: CorelDRAW 2019 (64 Bit) -->
<svg xmlns="http://www.w3.org/2000/svg" xml:space="preserve" width="181px" height="20px" version="1.1" style="shape-rendering:geometricPrecision; text-rendering:geometricPrecision; image-rendering:optimizeQuality; fill-rule:evenodd; clip-rule:evenodd"
viewBox="0 0 48.4 5.32"
 xmlns:xlink="http://www.w3.org/1999/xlink">
 <defs>
  <style type="text/css">
   <![CDATA[
    .fil2 {fill:whitesmoke}
    .fil0 {fill:#E31222;fill-rule:nonzero}
    .fil1 {fill:whitesmoke;fill-rule:nonzero}
   ]]>
  </style>
 </defs>
 <g id="Camada_x0020_1">
  <metadata id="CorelCorpID_0Corel-Layer"/>
  <path class="fil0" d="M18.02 4.95c0.06,0.16 0.21,0.25 0.37,0.25 0.05,0 0.1,-0.01 0.14,-0.02 0.21,-0.08 0.31,-0.31 0.24,-0.52l-1.6 -4.26c-0.06,-0.15 -0.22,-0.26 -0.38,-0.25 -0.16,-0.01 -0.32,0.1 -0.38,0.25l-1.6 4.26c-0.07,0.21 0.03,0.44 0.24,0.52 0.04,0.01 0.08,0.02 0.13,0.02 0.16,0 0.32,-0.09 0.38,-0.25l0.35 -0.94 1.76 0 0.35 0.94zm-1.82 -1.74l0.59 -1.55 0.58 1.55 -1.17 0zm5.69 1.99c0.64,0 1.22,-0.21 1.67,-0.56 0.18,-0.14 0.21,-0.4 0.08,-0.58 -0.15,-0.17 -0.42,-0.2 -0.58,-0.08 -0.33,0.26 -0.72,0.4 -1.17,0.4 -0.49,0 -0.96,-0.21 -1.3,-0.52 -0.32,-0.32 -0.52,-0.77 -0.52,-1.26 0,-0.49 0.2,-0.92 0.52,-1.26 0.34,-0.31 0.81,-0.52 1.3,-0.52 0.45,0 0.85,0.14 1.17,0.4 0.16,0.13 0.43,0.1 0.58,-0.08 0.13,-0.18 0.1,-0.43 -0.08,-0.58 -0.45,-0.35 -1.03,-0.56 -1.67,-0.56 -1.44,0.01 -2.64,1.17 -2.65,2.6 0.01,1.44 1.21,2.6 2.65,2.6zm5.97 -0.25c0.06,0.16 0.21,0.25 0.37,0.25 0.05,0 0.1,-0.01 0.14,-0.02 0.21,-0.08 0.31,-0.31 0.23,-0.52l-1.59 -4.26c-0.07,-0.15 -0.22,-0.26 -0.38,-0.25 -0.16,-0.01 -0.32,0.1 -0.39,0.25l-1.59 4.26c-0.08,0.21 0.03,0.44 0.24,0.52 0.04,0.01 0.08,0.02 0.13,0.02 0.16,0 0.31,-0.09 0.38,-0.25l0.35 -0.94 1.76 0 0.35 0.94zm-1.82 -1.74l0.59 -1.55 0.58 1.55 -1.17 0zm3.95 1.99c0,0 0,0 0,0 0,0 0,0 0,0l0.85 0c1.4,0 2.52,-1.13 2.52,-2.53 0,-1.39 -1.12,-2.53 -2.52,-2.53l-0.85 0c0,0 0,0 0,0 0,0 0,0 0,0 -0.22,0 -0.4,0.18 -0.4,0.4l0 4.26c0,0.22 0.18,0.4 0.4,0.4zm0.41 -4.25l0.44 0c0.96,0 1.72,0.77 1.72,1.72 0,0.96 -0.76,1.72 -1.72,1.73l-0.44 0 0 -3.45zm4.42 4.25c0,0 0.01,-0.01 0.01,-0.01 0,0 0,0.01 0.02,0.01l2.34 0c0.2,0 0.39,-0.18 0.39,-0.4 0,-0.22 -0.19,-0.4 -0.39,-0.4l-1.96 0 0 -1.33 1.68 0c0.22,0 0.4,-0.18 0.4,-0.4 0,-0.21 -0.18,-0.4 -0.4,-0.4l-1.68 0 0 -1.32 1.96 0c0.2,0 0.39,-0.18 0.39,-0.41 0,-0.22 -0.19,-0.4 -0.39,-0.4l-2.34 0c-0.02,0 -0.02,0 -0.02,0 0,0 -0.01,0 -0.01,0 -0.22,0 -0.39,0.18 -0.39,0.4l0 4.26c0,0.22 0.17,0.4 0.39,0.4zm7.83 -5.06c0,0 0,0 0,0 0,0 0,0 0,0 0,0 0,0 0,0 -0.13,0 -0.25,0.06 -0.33,0.17l-1.44 1.99 -1.43 -1.99c-0.08,-0.11 -0.21,-0.17 -0.32,-0.17 -0.02,0 -0.02,0 -0.02,0 -0.22,0 -0.4,0.19 -0.4,0.4l0 4.26c0,0.22 0.18,0.4 0.4,0.4 0.22,0 0.4,-0.18 0.4,-0.4l0 -3.04 1.03 1.45c0.08,0.11 0.21,0.16 0.34,0.16 0,0 0,0 0,0 0,0 0.01,0 0.01,0 0.13,0 0.25,-0.05 0.33,-0.16l1.04 -1.45 0 3.04c0,0.22 0.17,0.4 0.39,0.4 0.22,0 0.41,-0.18 0.41,-0.4l0 -4.26c0,-0.21 -0.19,-0.39 -0.41,-0.4zm5.59 0.13c-0.18,-0.13 -0.42,-0.09 -0.56,0.09l-1.24 1.69 -1.23 -1.69c-0.12,-0.18 -0.37,-0.22 -0.55,-0.09 -0.18,0.13 -0.22,0.38 -0.08,0.55l1.47 2.03 0 1.95c0,0.23 0.19,0.4 0.39,0.4 0.23,0 0.4,-0.17 0.4,-0.4l0 -1.95 1.48 -2.03c0.13,-0.17 0.09,-0.42 -0.08,-0.55z"/>
  <path class="fil1" d="M3.19 2.53c0.39,-0.23 0.64,-0.64 0.64,-1.09 0,-0.75 -0.65,-1.3 -1.55,-1.3l-2.28 0 0 5.06 2.33 0c0.93,0 1.64,-0.62 1.64,-1.44 0,-0.55 -0.3,-1 -0.78,-1.23l0 0zm-0.68 -0.86c0,0.26 -0.18,0.44 -0.47,0.44l-0.7 0 0 -0.88 0.7 0c0.29,0 0.47,0.18 0.47,0.44l0 0zm-0.42 2.39l-0.75 0 0 -0.92 0.75 0c0.31,0 0.5,0.19 0.5,0.46 0,0.27 -0.19,0.46 -0.5,0.46l0 0zm4.22 1.26c1.17,0 1.96,-0.76 1.96,-1.85l0 -3.33 -1.41 0 0 3.25c0,0.4 -0.22,0.64 -0.55,0.64 -0.35,0 -0.58,-0.25 -0.58,-0.64l0 -0.13 -1.4 0 0 0.2c0,1.1 0.81,1.86 1.98,1.86l0 0zm4.49 0c1.17,0 1.96,-0.76 1.96,-1.85l0 -3.33 -1.4 0 0 3.25c0,0.4 -0.23,0.64 -0.56,0.64 -0.35,0 -0.58,-0.25 -0.58,-0.64l0 -0.13 -1.4 0 0 0.2c0,1.1 0.81,1.86 1.98,1.86l0 0z"/>
  <path class="fil2" d="M13.67 4.18c0.28,0 0.5,0.23 0.5,0.5 0,0.28 -0.22,0.5 -0.5,0.5 -0.28,0 -0.5,-0.22 -0.5,-0.5 0,-0.27 0.22,-0.5 0.5,-0.5z"/>
 </g>
</svg>
